# xmcd
#
# Track frame offsets:
#	150
#	16760
#	30865
#	49195
#	64522
#
# Disc length: 1081 seconds
#
# Revision: 1
# Processed by: cddbd v1.5.2PL0 Copyright (c) Steve Scherf et al.
# Submitted via: audiograbber 1.83.01
#
DISCID=2d043705
DTITLE=Connie Kis Andersen - Keeping It Simple Connie Kis Andersen
DYEAR=1900
DGENRE=
TTITLE0=It큦 Called Love
TTITLE1=I큞l Get Back About That
TTITLE2=You Stole My Heart
TTITLE3=It큦 Too Late
TTITLE4=Let큦 Keep It Simple
EXTD=
EXTT0=
EXTT1=
EXTT2=
EXTT3=
EXTT4=
PLAYORDER=
